<svg height="236" width="139" xmlns="http://www.w3.org/2000/svg"><g fill="none" fill-rule="evenodd"><path d="M9.336 175.959c0 21.433 31.18 31.209 60.141 31.209 28.963 0 60.142-9.776 60.142-31.209 0-21.427-31.179-31.205-60.142-31.205-28.961 0-60.141 9.778-60.141 31.205zm36.308 15.905c-8.694 0-15.75-7.079-15.75-15.773s7.056-15.774 15.75-15.774c8.693 0 15.772 7.08 15.772 15.774s-7.079 15.773-15.772 15.773zm47.637 0c-8.693 0-15.746-7.079-15.746-15.773s7.053-15.774 15.746-15.774c8.694 0 15.781 7.08 15.781 15.774s-7.087 15.773-15.781 15.773z" fill="#5890dc"/><path d="M93.281 160.317c-8.693 0-15.746 7.08-15.746 15.774s7.053 15.773 15.746 15.773c8.694 0 15.781-7.079 15.781-15.773s-7.087-15.774-15.781-15.774zm0 22.537c-3.726 0-6.738-3.034-6.738-6.763 0-3.724 3.012-6.764 6.738-6.764a6.759 6.759 0 0 1 6.766 6.764 6.755 6.755 0 0 1-6.766 6.763z" fill="#1d2d2e"/><path d="M119.076 146.785c-1.084-20.477-26.219-29.802-49.599-29.802-23.385 0-48.513 9.325-49.624 29.802 12.553-7.05 30.254-11.04 49.624-11.04 19.367 0 37.068 3.99 49.599 11.04" fill="#5890dc"/><path d="M93.281 169.327c-3.726 0-6.738 3.04-6.738 6.764 0 3.729 3.012 6.763 6.738 6.763a6.755 6.755 0 0 0 6.766-6.763 6.759 6.759 0 0 0-6.766-6.764" fill="#fff"/><path d="M98.121 112.542c.338-.873.338-1.293.338-1.371.025-.955-.498-5.289-13.471-18.391-6.238-6.053-11.26-10.091-15.353-10.091-4.385 0-9.433 4.063-15.722 10.144-13.21 13.371-13.446 17.57-13.446 18.022 0 .236.026.735.366 1.687 8.668-2.986 18.499-4.57 28.644-4.57 10.144 0 20 1.584 28.644 4.57z" fill="#5890dc"/><path d="M32.327 211.551c7.421 11.117 23.149 16.168 37.176 16.168 13.157 0 29.593-4.387 37.282-16.196-21.693 7.319-52.684 7.346-74.458.028" fill="#fcc752"/><path d="M74.182 22.094c3.511 0 6.363-2.853 6.363-6.338 0-3.516-2.852-6.398-6.363-6.398-3.518 0-6.372 2.882-6.372 6.398 0 3.485 2.854 6.338 6.372 6.338" fill="#5890dc"/><path d="M45.644 160.317c-8.694 0-15.75 7.08-15.75 15.774s7.056 15.773 15.75 15.773c8.693 0 15.772-7.079 15.772-15.773s-7.079-15.774-15.772-15.774zm0 22.537c-3.727 0-6.739-3.034-6.739-6.763 0-3.724 3.012-6.764 6.739-6.764 3.726 0 6.762 3.04 6.762 6.764 0 3.729-3.036 6.763-6.762 6.763z" fill="#1d2d2e"/><path d="M45.644 169.327c-3.727 0-6.739 3.04-6.739 6.764 0 3.729 3.012 6.763 6.739 6.763 3.726 0 6.762-3.034 6.762-6.763 0-3.724-3.036-6.764-6.762-6.764" fill="#fff"/><path d="M127.795 152.943a36.04 36.04 0 0 0 .314-4.779c0-13.583-7.664-24.894-21.697-32.106.768-1.85 1.115-3.49 1.063-4.887.183-5.627-4.784-13.267-16.174-24.786-6.473-6.265-11.783-10.573-17.332-12.102v-5.498l-3.731-3.72 18.182-5.819-18.735-12.073 6.954-16.275a15.286 15.286 0 0 0 12.916-15.142C89.555 7.273 82.66.377 74.182.377c-8.488 0-15.377 6.896-15.377 15.379 0 5.918 3.481 11.254 8.635 13.791l-9.009 21.086 9.064 5.839-14.058 4.492 11.544 11.547v1.772c-5.565 1.507-10.907 5.837-17.409 12.183-11.335 11.438-16.303 19.048-16.092 24.389-.051 1.557.293 3.302 1.084 5.203-14.058 7.212-21.748 18.523-21.748 32.106 0 1.61.134 3.197.344 4.779C3.972 159.366.328 167.104.328 175.959c0 12.023 6.865 22.144 19.843 29.332 5.525 21.01 28.561 30.438 49.332 30.438 20.794 0 43.835-9.428 49.333-30.467 12.947-7.185 19.766-17.308 19.766-29.303 0-8.855-3.616-16.593-10.807-23.016zM74.182 9.358c3.511 0 6.363 2.882 6.363 6.398 0 3.485-2.852 6.338-6.363 6.338-3.518 0-6.372-2.853-6.372-6.338 0-3.516 2.854-6.398 6.372-6.398zM53.913 92.833c6.289-6.081 11.337-10.144 15.722-10.144 4.093 0 9.115 4.038 15.353 10.091 12.973 13.102 13.496 17.436 13.471 18.391 0 .078 0 .498-.338 1.371-8.644-2.986-18.5-4.57-28.644-4.57-10.145 0-19.976 1.584-28.644 4.57-.34-.952-.366-1.451-.366-1.687 0-.452.236-4.651 13.446-18.022zm15.564 24.15c23.38 0 48.515 9.325 49.599 29.802-12.531-7.05-30.232-11.04-49.599-11.04-19.37 0-37.071 3.99-49.624 11.04 1.111-20.477 26.239-29.802 49.624-29.802zm.026 110.736c-14.027 0-29.755-5.051-37.176-16.168 21.774 7.318 52.765 7.291 74.458-.028-7.689 11.809-24.125 16.196-37.282 16.196zm-.026-20.551c-28.961 0-60.141-9.776-60.141-31.209 0-21.427 31.18-31.205 60.141-31.205 28.963 0 60.142 9.778 60.142 31.205 0 21.433-31.179 31.209-60.142 31.209z" fill="#222529"/></g></svg>