<svg width="50" height="41" xmlns="http://www.w3.org/2000/svg"><g fill="none" fill-rule="evenodd"><path d="M0-5h49.967v50H0z"/><path fill="#010605" fill-rule="nonzero" d="M49.517.122L32.396 26.604l-10.003-7.148-8.25 4.353-1.304-12.567L.676.205l48.84-.083"/><path fill="#2E2D76" fill-rule="nonzero" d="M18.164 16.68l-2.648 4.1 4.75-2.54-2.102-1.56"/><path fill="#5890DC" fill-rule="nonzero" d="M15.135 17.936l2.237-4.1 9.452-5.252-11.168 3.992-.521 5.36"/><path fill="#010605" fill-rule="nonzero" d="M.25 40.319l17.122-26.482 10.008 7.148 8.244-4.353 1.305 12.566 12.167 11.038-48.845.083"/><path fill="#EACD57" fill-rule="nonzero" d="M3.271 39.063l14.44-22.329 12.385 8.776-20.31 10.944 25.103-6.21 9.733 8.34-41.35.48"/><path fill="#5890DC" fill-rule="nonzero" d="M34.633 22.505l-2.237 4.099-9.452 5.252 11.167-3.991.522-5.36"/><path fill="#FCEF93" fill-rule="nonzero" d="M8.07 38.33l33-.83-4.905-4.896L8.07 38.33"/><path fill="#C1B261" fill-rule="nonzero" d="M21.373 20.887l-3.175-2.496-11.69 18.303 14.865-15.807"/><path fill="#EACD57" fill-rule="nonzero" d="M46.497 1.378l-14.44 22.329-12.385-8.776 20.31-10.944-25.099 6.205-9.732-8.336 41.346-.478"/><path fill="#C1B261" fill-rule="nonzero" d="M28.395 19.554l3.174 2.496L43.26 3.742 28.395 19.554"/><path fill="#FCEF93" fill-rule="nonzero" d="M41.698 2.11l-32.995.831 4.9 4.891 28.095-5.721"/></g></svg>